<?xml version="1.0" encoding="UTF-8" standalone="no"?>
<svg width="241px" height="231px" viewBox="0 0 241 231" version="1.1" xmlns="http://www.w3.org/2000/svg" xmlns:xlink="http://www.w3.org/1999/xlink" xmlns:sketch="http://www.bohemiancoding.com/sketch/ns">
    <!-- Generator: Sketch 3.2.2 (9983) - http://www.bohemiancoding.com/sketch -->
    <title>Chuck alone</title>
    <desc>Created with Sketch.</desc>
    <defs></defs>
    <g id="Page-1" stroke="none" stroke-width="1" fill="none" fill-rule="evenodd" sketch:type="MSPage">
        <g id="Badge-2" sketch:type="MSLayerGroup" transform="translate(-177.000000, -181.000000)">
            <g id="Chuck-alone" transform="translate(176.800000, 180.833333)" sketch:type="MSShapeGroup">
                <path d="M198.202564,139.547556 C198.202564,153.108889 184.948168,164.106667 168.595788,164.106667 L74.0122711,164.106667 C57.6661172,164.106667 44.4117216,153.108889 44.4117216,139.547556 L44.4117216,128.783111 C44.4117216,109.273333 63.5164835,93.4595556 87.0767399,93.4595556 L155.450366,93.4595556 C178.770879,93.4595556 197.71685,108.956 198.099817,128.185778 C198.165201,128.384889 198.202564,128.577778 198.202564,128.783111 L198.202564,139.547556" id="Fill-53" fill="#FFFFFF"></path>
                <path d="M198.202564,139.547556 C198.202564,153.108889 184.948168,164.106667 168.595788,164.106667 L74.0122711,164.106667 C57.6661172,164.106667 44.4117216,153.108889 44.4117216,139.547556 L44.4117216,128.783111 C44.4117216,109.273333 63.5164835,93.4595556 87.0767399,93.4595556 L155.450366,93.4595556 C178.770879,93.4595556 197.71685,108.956 198.099817,128.185778 C198.165201,128.384889 198.202564,128.577778 198.202564,128.783111 L198.202564,139.547556 L198.202564,139.547556 Z M225.991026,123.705778 L225.963004,123.705778 C225.710806,104.149333 223.416117,79.8142222 210.23022,59.2591111 C206.518864,53.4724444 202.1163,48.3391111 197.097253,43.8 C198.174542,42.8977778 199.401282,42.0017778 200.849084,41.1026667 C207.437363,36.9866667 211.97381,35.5431111 219.181685,31.7008889 C219.060256,31.788 216.239377,25.8737778 216.033883,25.4226667 C214.380586,21.7826667 212.649451,15.5168889 212.443956,13.5257778 C212.160623,10.8004444 212.135714,9.96666667 212.185531,9.14222222 C208.396337,10.1191111 206.746154,10.0164444 193.252015,18.8675556 C189.671429,21.2195556 180.171978,28.5462222 179.760989,28.8324444 C180.031868,26.4182222 182.307875,19.8817778 184.151099,15.5822222 C185.184799,13.1711111 186.050366,11.4413333 187.105861,9.46577778 C187.65696,8.436 189.03315,6.03422222 189.581136,5.00444444 C188.002564,5.14444444 185.377839,4.55022222 184.910806,4.45688889 C181.747436,3.83777778 177.917766,2.94177778 173.611722,1.38622222 C172.92674,1.14044444 172.107875,0.683111111 171.369963,0.667555556 C171.273443,1.81555556 170.345604,7.23511111 170.021795,8.76266667 C168.592674,15.5604444 168.564652,15.3675556 167.119963,19.9688889 C166.497253,21.9568889 165.799817,23.8857778 165.065018,25.7991111 C153.049817,21.9195556 139.300366,19.776 123.847802,19.3933333 L123.847802,19.3373333 L118.766484,19.3373333 L118.766484,19.3933333 C79.5294872,20.3671111 51.2148352,32.6871111 34.557326,56.0577778 C19.347619,77.3813333 17.0747253,103.393333 16.6917582,121.095556 C16.6076923,125.158667 16.6232601,128.951111 16.6419414,132.488444 L16.7882784,132.485333 C17.4016484,150.016444 20.2785714,174.161778 34.557326,194.184889 C51.2148352,217.558667 79.5294872,229.878667 118.766484,230.846222 L118.766484,230.905333 L123.847802,230.905333 L123.847802,230.846222 C164.862637,229.835111 193.905861,216.432444 210.23022,190.986667 C223.416117,170.425333 225.710806,146.096444 225.963004,126.536889 L225.991026,126.536889 C225.987912,126.073333 225.981685,125.591111 225.975458,125.121333 C225.981685,124.651556 225.987912,124.169333 225.991026,123.705778 L225.991026,123.705778 Z" id="Fill-54" fill="#1A1918"></path>
                <path d="M88.0076923,129.025778 C87.5749084,131.785333 85.1992674,133.900889 82.3161172,133.900889 C79.4360806,133.900889 77.0604396,131.782222 76.6276557,129.022667 C73.7164835,130.892444 71.782967,134.156 71.782967,137.873778 C71.782967,143.685333 76.4968864,148.395556 82.3161172,148.395556 C88.135348,148.395556 92.8461538,143.685333 92.8461538,137.873778 C92.8461538,134.156 90.9157509,130.895556 88.0076923,129.025778" id="Fill-55" fill="#1A1918"></path>
                <path d="M166.011538,129.025778 C165.578755,131.785333 163.212454,133.900889 160.32619,133.900889 C157.436813,133.900889 155.070513,131.782222 154.637729,129.022667 C151.726557,130.892444 149.789927,134.156 149.789927,137.873778 C149.789927,143.685333 154.510073,148.395556 160.32619,148.395556 C166.132967,148.395556 170.85,143.685333 170.85,137.873778 C170.85,134.156 168.919597,130.895556 166.011538,129.025778" id="Fill-56" fill="#1A1918"></path>
                <path d="M212.406593,156.064444 C212.406593,161.527556 207.957326,165.973333 202.489927,165.973333 L149.64359,165.973333 C144.17619,165.973333 139.726923,161.527556 139.726923,156.064444 L139.726923,118.609778 L212.412821,118.609778 L212.406593,156.064444 L212.406593,156.064444 Z M92.7122711,165.973333 L39.8690476,165.973333 C34.4016484,165.973333 29.9492674,161.527556 29.9492674,156.064444 L29.9492674,118.609778 L102.625824,118.609778 L102.635165,156.064444 C102.635165,161.527556 98.1796703,165.973333 92.7122711,165.973333 L92.7122711,165.973333 Z M223.403663,131.530222 C223.403663,124.203556 229.372344,118.239556 236.704762,118.239556 L236.710989,118.239556 L236.710989,107.624444 L4.31538462,107.624444 L4.31538462,118.239556 L5.65421245,118.239556 C12.9928571,118.239556 18.9553114,124.203556 18.9553114,131.530222 L18.9553114,156.064444 C18.9553114,167.584889 28.3333333,176.961778 39.8690476,176.961778 L92.7122711,176.961778 C104.241758,176.961778 113.632234,167.584889 113.632234,156.064444 L114.13663,129.825333 C115.226374,126.695556 117.991209,124.558222 121.182601,124.558222 C124.370879,124.558222 127.12326,126.695556 128.219231,129.825333 L128.729853,156.064444 C128.729853,167.584889 138.104762,176.961778 149.64359,176.961778 L202.489927,176.961778 C214.0163,176.961778 223.403663,167.584889 223.403663,156.064444 L223.403663,131.530222 L223.403663,131.530222 Z" id="Fill-57" fill="#1A1918"></path>
                <path d="M33.7478022,122.396 L33.7478022,156.064444 C33.7478022,159.44 36.4877289,162.187111 39.8690476,162.187111 L92.7122711,162.187111 C96.0935897,162.187111 98.8428571,159.44 98.8428571,156.064444 L98.8428571,122.396 L33.7478022,122.396 L33.7478022,122.396 Z M92.7122711,165.973333 L39.8690476,165.973333 C34.4016484,165.973333 29.9492674,161.527556 29.9492674,156.064444 L29.9492674,118.609778 L102.625824,118.609778 L102.635165,156.064444 C102.635165,161.527556 98.1796703,165.973333 92.7122711,165.973333 L92.7122711,165.973333 Z M143.522344,122.396 L143.522344,156.064444 C143.522344,159.44 146.262271,162.187111 149.64359,162.187111 L202.489927,162.187111 C205.861905,162.187111 208.620513,159.44 208.620513,156.064444 L208.620513,122.396 L143.522344,122.396 L143.522344,122.396 Z M202.489927,165.973333 L149.64359,165.973333 C144.17619,165.973333 139.726923,161.527556 139.726923,156.064444 L139.726923,118.609778 L212.412821,118.609778 L212.406593,156.064444 C212.406593,161.527556 207.957326,165.973333 202.489927,165.973333 L202.489927,165.973333 Z M128.219231,129.825333 L128.729853,156.064444 C128.729853,167.584889 138.104762,176.961778 149.64359,176.961778 L202.489927,176.961778 C214.0163,176.961778 223.403663,167.584889 223.403663,156.064444 L223.403663,131.530222 C223.403663,124.203556 229.372344,118.239556 236.704762,118.239556 L236.710989,118.239556 L236.710989,107.624444 L4.31538462,107.624444 L4.31538462,118.239556 L5.65421245,118.239556 C12.9928571,118.239556 18.9553114,124.203556 18.9553114,131.530222 L18.9553114,156.064444 C18.9553114,167.584889 28.3333333,176.961778 39.8690476,176.961778 L92.7122711,176.961778 C104.241758,176.961778 113.632234,167.584889 113.632234,156.064444 L114.13663,129.825333 C115.226374,126.695556 117.991209,124.558222 121.182601,124.558222 C124.370879,124.558222 127.12326,126.695556 128.219231,129.825333 L128.219231,129.825333 Z M202.489927,180.748 L149.64359,180.748 C136.021795,180.748 124.937546,169.675556 124.937546,156.064444 L124.937546,132.485333 L124.865934,131.996889 C124.548352,129.875111 123.000916,128.341333 121.182601,128.341333 C119.361172,128.341333 117.807509,129.875111 117.49304,131.996889 L117.421429,132.485333 L117.421429,156.064444 C117.421429,169.675556 106.334066,180.748 92.7122711,180.748 L39.8690476,180.748 C26.2472527,180.748 15.1630037,169.675556 15.1630037,156.064444 L15.1630037,131.530222 C15.1630037,126.288 10.903663,122.025778 5.65421245,122.025778 L0.535531136,122.025778 L0.535531136,103.838222 L240.49707,103.838222 L240.49707,122.025778 L236.704762,122.025778 C231.464652,122.025778 227.189744,126.288 227.189744,131.530222 L227.189744,156.064444 C227.189744,169.675556 216.111722,180.748 202.489927,180.748 L202.489927,180.748 Z" id="Fill-58" fill="#FFFFFF"></path>
            </g>
        </g>
    </g>
</svg>